<svg width="25" height="25" viewBox="0 0 25 25" fill="none" xmlns="http://www.w3.org/2000/svg">
<path d="M15.3683 18.9649C15.0683 18.9649 14.8683 18.8649 14.6683 18.6649C14.2683 18.2649 14.2683 17.6649 14.6683 17.2649L19.6683 12.2649C20.0683 11.8649 20.6683 11.8649 21.0683 12.2649C21.4683 12.6649 21.4683 13.2649 21.0683 13.6649L16.0683 18.6649C15.8683 18.8649 15.6683 18.9649 15.3683 18.9649Z" fill="#0085FF"/>
<path d="M20.3683 13.9649C20.0683 13.9649 19.8683 13.8649 19.6683 13.6649L14.6683 8.6649C14.2683 8.2649 14.2683 7.6649 14.6683 7.2649C15.0683 6.8649 15.6683 6.8649 16.0683 7.2649L21.0683 12.2649C21.4683 12.6649 21.4683 13.2649 21.0683 13.6649C20.8683 13.8649 20.6683 13.9649 20.3683 13.9649Z" fill="#0085FF"/>
<path d="M20.3683 13.9649H4.36829C3.76829 13.9649 3.36829 13.5649 3.36829 12.9649C3.36829 12.3649 3.76829 11.9649 4.36829 11.9649H20.3683C20.9683 11.9649 21.3683 12.3649 21.3683 12.9649C21.3683 13.5649 20.9683 13.9649 20.3683 13.9649Z" fill="#0085FF"/>
</svg>
