<svg width="25" height="25" viewBox="0 0 25 25" fill="none" xmlns="http://www.w3.org/2000/svg">
<path d="M3.14067 24.9649C2.68012 24.9642 2.22773 24.8592 1.82799 24.6603C0.927864 24.2169 0.368286 23.356 0.368286 22.4214V3.50849C0.368286 2.57132 0.927864 1.71306 1.82799 1.26958C2.23725 1.06509 2.70217 0.959923 3.17417 0.965086C3.64616 0.970249 4.1079 1.08555 4.51111 1.29893L23.1025 10.9745C23.4899 11.1858 23.8093 11.4791 24.0307 11.827C24.2521 12.1749 24.3683 12.566 24.3683 12.9637C24.3683 13.3613 24.2521 13.7524 24.0307 14.1003C23.8093 14.4482 23.4899 14.7415 23.1025 14.9528L4.50811 24.631C4.09548 24.8479 3.62285 24.9633 3.14067 24.9649Z" fill="#FFC700"/>
</svg>
